# xmcd
#
# Track frame offsets:
#	150
#	13982
#	26391
#	39930
#	54788
#	66064
#	80527
#	94333
#	106909
#	116215
#	130998
#	143065
#	157817
#	171694
#	187585
#	199041
#	212133
#	224641
#	237633
#	249778
#	263636
#	275547
#	287552
#
# Disc length: 4018
#
# Revision: 1
# Processed by: cddbd v1.5.1PL0 Copyright (c) Steve Scherf et al.
# Submitted via: VisiTrax 2.9.5.181 - For more info visit www.synapsa.com
# Normalized: r0:DSETVAR1
#
DISCID=4a0fb017
DTITLE=Various Artist - Prison Blues
DYEAR=2001
DGENRE=
TTITLE0=Kokomo Arnold - Chain Gang Blues
TTITLE1=Ed Bell - Big Rock Jail
TTITLE2=Jim Jackson - He's In The Jailhouse Now
TTITLE3=Alice Moore - Prison Blues
TTITLE4=Buddy Boy Hawkins - Jailhouse Fire
TTITLE5=Leroy Carr - Christmas Jail - Ain't That A Pain
TTITLE6=Sylvester Weaver - Penitentiary Bound Blues
TTITLE7=Blind Lemon Jefferson - Blind Lemon's Penitentiary Blues
TTITLE8=Leadbelly - Midnight Special
TTITLE9=Champion Jack Dupree - County Jail Special
TTITLE10=Mae Glover - The County Farm Blues
TTITLE11=Peg Leg Howell - New Prison Blues
TTITLE12=Fred McMullen - De Kalb Chain Gang
TTITLE13=Bo Carter - The County Farm Blues
TTITLE14=Jesse Wadley - Alabama Prison Blues
TTITLE15=Big Maceo - County Jail
TTITLE16=Merline Johnson - Crime Doesn't Pay
TTITLE17="Funny Paper" Smith - County Jail Blues
TTITLE18=Blind Boy Fuller - Big House Bound
TTITLE19=Julius Daniels - Ninety-Nine Year Blues
TTITLE20=Blind Blake - Doin' A Stretch
TTITLE21=Bukka White - Parchman Farm Blues
TTITLE22=Frank Busby - Prisoner Boound
EXTD=
EXTT0=
EXTT1=
EXTT2=
EXTT3=
EXTT4=
EXTT5=
EXTT6=
EXTT7=
EXTT8=
EXTT9=
EXTT10=
EXTT11=
EXTT12=
EXTT13=
EXTT14=
EXTT15=
EXTT16=
EXTT17=
EXTT18=
EXTT19=
EXTT20=
EXTT21=
EXTT22=
PLAYORDER=
